<?xml version="1.0" encoding="UTF-8" standalone="no"?>
<svg
   viewBox="0 0 48 48"
   width="48px"
   height="48px"
   version="1.1"
   id="svg2"
   sodipodi:docname="icons8-messages.svg"
   inkscape:version="1.3.2 (091e20e, 2023-11-25, custom)"
   xmlns:inkscape="http://www.inkscape.org/namespaces/inkscape"
   xmlns:sodipodi="http://sodipodi.sourceforge.net/DTD/sodipodi-0.dtd"
   xmlns="http://www.w3.org/2000/svg"
   xmlns:svg="http://www.w3.org/2000/svg">
  <defs
     id="defs2" />
  <sodipodi:namedview
     id="namedview2"
     pagecolor="#ffffff"
     bordercolor="#000000"
     borderopacity="0.25"
     inkscape:showpageshadow="2"
     inkscape:pageopacity="0.0"
     inkscape:pagecheckerboard="0"
     inkscape:deskcolor="#d1d1d1"
     inkscape:zoom="17.104167"
     inkscape:cx="24"
     inkscape:cy="24"
     inkscape:window-width="1920"
     inkscape:window-height="1017"
     inkscape:window-x="-8"
     inkscape:window-y="-8"
     inkscape:window-maximized="1"
     inkscape:current-layer="svg2" />
  <path
     fill="#0f0"
     d="M35,6H13c-3.866,0-7,3.134-7,7v22c0,3.866,3.134,7,7,7h22c3.866,0,7-3.134,7-7V13 C42,9.134,38.866,6,35,6z"
     id="path1"
     style="fill:#ffc600;fill-opacity:1" />
  <path
     fill="#fff"
     d="M24,12c-7.18,0-13,4.925-13,11c0,4.074,2.624,7.622,6.513,9.523C16.931,33.773,16.087,34.949,15,36 c2.162-0.38,4.191-1.175,5.937-2.32C21.921,33.882,22.943,34,24,34c7.18,0,13-4.925,13-11S31.18,12,24,12z"
     id="path2" />
</svg>
